<?xml version="1.0" standalone="no"?>
<!DOCTYPE svg PUBLIC "-//W3C//DTD SVG 20010904//EN"
 "http://www.w3.org/TR/2001/REC-SVG-20010904/DTD/svg10.dtd">
<svg version="1.0" xmlns="http://www.w3.org/2000/svg"
 width="512.000000pt" height="512.000000pt" viewBox="0 0 512.000000 512.000000"
 preserveAspectRatio="xMidYMid meet">

<g transform="translate(0.000000,512.000000) scale(0.100000,-0.100000)"
fill="#000000" stroke="none">
<path d="M1372 3118 c-17 -17 -15 -52 6 -71 45 -41 1049 -667 1070 -667 29 0
1069 656 1084 683 7 14 7 27 -1 44 -10 21 -17 24 -44 21 -20 -2 -209 -116
-527 -317 -272 -172 -499 -315 -505 -318 -6 -2 -239 140 -518 317 -295 186
-516 320 -529 320 -13 0 -29 -5 -36 -12z"/>
<path d="M1372 2728 c-18 -18 -15 -56 6 -73 9 -8 249 -161 531 -340 308 -194
525 -325 539 -325 26 0 1044 637 1075 672 9 11 17 26 17 33 0 24 -32 47 -59
43 -14 -2 -248 -145 -519 -317 -271 -171 -499 -314 -506 -317 -7 -3 -241 139
-519 316 -290 183 -517 320 -530 320 -13 0 -28 -5 -35 -12z"/>
</g>
</svg>
